<svg width="22" height="23" viewBox="0 0 22 23" fill="none" xmlns="http://www.w3.org/2000/svg">
<path d="M13.9769 15.3933L15.5169 13.8533C15.7243 13.6484 15.9867 13.5082 16.2723 13.4496C16.5579 13.391 16.8543 13.4166 17.1256 13.5233L19.0025 14.2726C19.2767 14.3839 19.5118 14.5739 19.6782 14.8186C19.8446 15.0633 19.9348 15.3517 19.9375 15.6476V19.0851C19.9359 19.2864 19.8936 19.4853 19.8131 19.6698C19.7326 19.8543 19.6156 20.0206 19.4692 20.1587C19.3227 20.2968 19.1499 20.4038 18.961 20.4734C18.7721 20.5429 18.571 20.5735 18.37 20.5633C5.21813 19.7451 2.56438 8.60763 2.0625 4.34514C2.0392 4.13582 2.06049 3.92394 2.12496 3.72344C2.18943 3.52293 2.29562 3.33836 2.43655 3.18184C2.57747 3.02533 2.74994 2.90043 2.94261 2.81535C3.13527 2.73028 3.34377 2.68697 3.55438 2.68826H6.875C7.17132 2.68914 7.4606 2.77864 7.70564 2.94527C7.95067 3.11189 8.14025 3.34801 8.25 3.62326L8.99938 5.50014C9.10955 5.77037 9.13766 6.06708 9.08019 6.35319C9.02272 6.63931 8.88223 6.90215 8.67625 7.10889L7.13625 8.64889C7.13625 8.64889 8.02313 14.6508 13.9769 15.3933Z" fill="white"/>
</svg>
