<svg width="166" height="100" viewBox="0 0 166 100" fill="none" xmlns="http://www.w3.org/2000/svg">
<g clip-path="url(#clip0_204_331)">
<path d="M39.0971 26.0715H70.3489V28.5557H41.9618V47.2505H68.6563V49.7343H41.9618V70.2596H70.6744V72.7434H39.0971V26.0715ZM73.1489 26.0715H76.4693L91.1835 46.5968L106.223 26.0712L126.68 0L93.0715 48.754L110.39 72.7434H106.939L91.1835 50.911L75.3621 72.7434H71.9767L89.4256 48.7537L73.1485 26.0715H73.1489ZM111.627 28.5557V26.0712H147.241V28.5553H130.834V72.743H127.969V28.5557H111.627V28.5557ZM0 26.0712H3.58091L52.9595 99.9621L32.554 72.743L2.99482 29.6013L2.86472 72.7437H0V26.0712ZM146.953 69.5094C146.367 69.5094 145.928 69.0563 145.928 68.4699C145.928 67.8841 146.367 67.4304 146.953 67.4304C147.545 67.4304 147.977 67.8838 147.977 68.4699C147.977 69.056 147.545 69.5094 146.953 69.5094ZM149.768 66.7748H151.301C151.321 67.6049 151.928 68.1631 152.819 68.1631C153.816 68.1631 154.38 67.5631 154.38 66.4398V59.3233H155.941V66.4466C155.941 68.4699 154.771 69.6353 152.833 69.6353C151.015 69.6353 149.768 68.5049 149.768 66.7744V66.7748ZM157.983 66.6841H159.529C159.662 67.6398 160.595 68.2466 161.94 68.2466C163.194 68.2466 164.114 67.5977 164.114 66.7049C164.114 65.9375 163.529 65.477 162.198 65.1631L160.902 64.8492C159.083 64.4233 158.254 63.5443 158.254 62.0654C158.254 60.2725 159.717 59.0793 161.912 59.0793C163.954 59.0793 165.445 60.2722 165.536 61.9676H164.016C163.87 61.0398 163.062 60.4605 161.891 60.4605C160.658 60.4605 159.836 61.0537 159.836 61.9605C159.836 62.679 160.365 63.0909 161.675 63.3977L162.783 63.6699C164.846 64.1515 165.696 64.9887 165.696 66.5026C165.696 68.4282 164.205 69.6353 161.822 69.6353C159.592 69.6353 158.094 68.4838 157.983 66.6838V66.6841Z" fill="white"/>
</g>
<defs>
<clipPath id="clip0_204_331">
<rect width="165.696" height="100" fill="white"/>
</clipPath>
</defs>
</svg>
