<svg width="113" height="100" viewBox="0 0 113 100" fill="none" xmlns="http://www.w3.org/2000/svg">
<g clip-path="url(#clip0_40_303)">
<path d="M92.3171 32.3791C91.1222 31.9691 89.9171 31.5893 88.7031 31.2401C88.907 30.4067 89.0947 29.5835 89.2614 28.7747C91.9974 15.4936 90.2088 4.79403 84.0996 1.27122C78.2421 -2.10597 68.6627 1.41552 58.9882 9.83526C58.0347 10.6665 57.1024 11.5218 56.1921 12.4002C55.5827 11.8161 54.9626 11.2433 54.332 10.6822C44.1925 1.67955 34.0294 -2.11474 27.9268 1.41815C22.0746 4.80587 20.3417 14.8642 22.8048 27.451C23.0499 28.6976 23.3266 29.9378 23.6346 31.1703C22.1961 31.5791 20.8079 32.0142 19.4794 32.4774C7.59167 36.6221 0 43.1173 0 49.8546C0 56.8129 8.15 63.7923 20.5316 68.0243C21.5354 68.366 22.5475 68.6826 23.5671 68.9739C23.236 70.3014 22.942 71.6378 22.6855 72.9818C20.3373 85.3502 22.1711 95.1708 28.0075 98.537C34.0355 102.013 44.1531 98.4405 54.0044 89.8287C54.8032 89.1286 55.5845 88.4086 56.3474 87.6695C57.3331 88.6206 58.3452 89.5441 59.3825 90.4388C68.9254 98.6502 78.35 101.966 84.1807 98.5905C90.2031 95.1041 92.1605 84.5541 89.6193 71.7186C89.4191 70.713 89.1946 69.7124 88.9461 68.7177C89.6566 68.5072 90.354 68.2905 91.0338 68.0651C103.906 63.8006 112.281 56.9059 112.281 49.8546C112.281 43.0927 104.444 36.5537 92.3171 32.3791ZM89.5254 63.5125C88.9114 63.7155 88.2816 63.9116 87.6395 64.1024C86.2184 59.6037 84.3009 54.8203 81.9539 49.8778C84.1934 45.0532 86.0373 40.3309 87.4184 35.8616C88.5671 36.194 89.6816 36.5445 90.7561 36.9142C101.146 40.4914 107.484 45.7796 107.484 49.8546C107.484 54.1949 100.639 59.8296 89.5254 63.5125ZM84.914 72.6502C86.0377 78.3256 86.1978 83.4572 85.4535 87.469C84.7851 91.0739 83.4403 93.4769 81.7772 94.4397C78.239 96.4879 70.6719 93.8256 62.511 86.8028C61.5462 85.9709 60.6048 85.1124 59.6877 84.2282C62.8518 80.7682 66.0136 76.7458 69.0996 72.2782C74.5276 71.7967 79.6557 71.0089 84.3061 69.934C84.5351 70.8581 84.7386 71.7642 84.914 72.6502ZM38.2789 94.0857C34.8219 95.3063 32.0684 95.3414 30.4039 94.3818C26.8623 92.3392 25.3899 84.4537 27.3982 73.8765C27.637 72.6266 27.9103 71.3836 28.218 70.1489C32.8171 71.1664 37.9079 71.898 43.3487 72.3392C46.4557 76.7107 49.7088 80.7287 52.9873 84.2471C52.2905 84.9213 51.5773 85.5782 50.8482 86.2173C46.4917 90.0252 42.1263 92.7269 38.2789 94.0857ZM22.0833 63.4857C16.6083 61.6142 12.0868 59.1822 8.98772 56.5282C6.20263 54.1436 4.79693 51.7756 4.79693 49.8546C4.79693 45.766 10.8921 40.551 21.0583 37.0067C22.2921 36.5769 23.5833 36.1712 24.9232 35.7905C26.3285 40.3607 28.1715 45.1392 30.3956 49.9712C28.1425 54.8747 26.2732 59.7296 24.8544 64.3537C23.9237 64.0871 22.9998 63.7977 22.0833 63.4857ZM27.5123 26.5296C25.4022 15.7458 26.8035 7.61113 30.3303 5.56947C34.0864 3.3949 42.3925 6.49534 51.1474 14.269C51.7183 14.7771 52.2799 15.2954 52.832 15.8239C49.5697 19.3269 46.3465 23.3151 43.2671 27.6607C37.9864 28.1502 32.9316 28.9361 28.2842 29.9892C27.9979 28.8428 27.7405 27.6894 27.5123 26.53V26.5296ZM75.9452 38.4892C74.8475 36.5931 73.7091 34.7209 72.5307 32.8739C76.1132 33.3269 79.5456 33.9282 82.7689 34.6633C81.8013 37.7651 80.5952 41.0076 79.1754 44.3322C78.1377 42.3632 77.0607 40.4152 75.9452 38.4892ZM56.1943 19.2519C58.4066 21.6489 60.6224 24.3247 62.8018 27.2282C58.3807 27.0194 53.9523 27.0186 49.5311 27.2256C51.7127 24.3489 53.9474 21.6765 56.1943 19.2519ZM36.3167 38.5221C35.2151 40.4326 34.1582 42.3685 33.1469 44.3282C31.7504 41.0155 30.5553 37.7581 29.5794 34.6124C32.7829 33.8958 36.1991 33.3098 39.7588 32.8651C38.5673 34.7234 37.4196 36.6095 36.3167 38.5217V38.5221ZM39.861 67.1853C36.1833 66.7747 32.7158 66.219 29.5132 65.5217C30.5044 62.3199 31.7259 58.9932 33.1526 55.6094C34.1679 57.5706 35.2292 59.5077 36.3355 61.419C37.4732 63.3839 38.6513 65.3085 39.861 67.1853ZM56.3268 80.7949C54.0531 78.3423 51.7855 75.6287 49.5711 72.7103C51.7211 72.7945 53.9127 72.8375 56.1404 72.8375C58.4289 72.8375 60.6912 72.7861 62.918 72.687C60.7316 75.6581 58.5241 78.3756 56.3268 80.7949ZM79.2206 55.4366C80.7215 58.8576 81.9864 62.1668 82.9908 65.3138C79.7355 66.0567 76.2206 66.655 72.5171 67.0993C73.7038 65.2179 74.8531 63.3132 75.964 61.3861C77.0936 59.4274 78.1794 57.4437 79.2206 55.4366ZM71.8092 58.9896C70.1084 61.9442 68.312 64.8427 66.4228 67.6804C63.0007 67.9228 59.571 68.0432 56.1404 68.0414C52.6461 68.0414 49.2474 67.9326 45.9746 67.7203C44.0361 64.8891 42.2054 61.9856 40.4864 59.016H40.4868C38.776 56.0621 37.1779 53.0442 35.6961 49.969C37.1741 46.8931 38.7673 43.8739 40.4724 40.9177L40.4719 40.9182C42.1763 37.9612 43.9924 35.0701 45.9162 32.251C49.2553 31.9984 52.6794 31.8668 56.1399 31.8668H56.1404C59.6167 31.8668 63.0452 31.9997 66.3833 32.2541C68.2878 35.069 70.0922 37.9501 71.7934 40.8923C73.5041 43.8419 75.1184 46.8464 76.6338 49.901C75.134 52.9869 73.5248 56.0184 71.8092 58.9896ZM81.7039 5.42648C85.4636 7.5949 86.9259 16.3392 84.5636 27.8063C84.4127 28.5379 84.2434 29.2831 84.0592 30.0388C79.4004 28.9633 74.3421 28.1638 69.0461 27.6668C65.961 23.2734 62.764 19.2791 59.5548 15.8212C60.3959 15.0105 61.257 14.2208 62.1373 13.4528C70.4268 6.2392 78.1741 3.39096 81.7039 5.42648ZM56.1404 39.8282C61.6776 39.8282 66.1667 44.3173 66.1667 49.8546C66.1667 55.3918 61.6776 59.8809 56.1404 59.8809C50.6031 59.8809 46.114 55.3918 46.114 49.8546C46.114 44.3173 50.6031 39.8282 56.1404 39.8282Z" fill="#00D8FF"/>
</g>
<defs>
<clipPath id="clip0_40_303">
<rect width="112.281" height="100" fill="white"/>
</clipPath>
</defs>
</svg>
