<svg width="67" height="40" viewBox="0 0 67 40" fill="none" xmlns="http://www.w3.org/2000/svg">
<path d="M34.5 38H25.95L11.65 16.35V38H3.1V2.9H11.65L25.95 24.65V2.9H34.5V38Z" fill="#E5E5E5"/>
<path d="M50.5977 9.92C53.5577 9.92 56.1443 10.5067 58.3577 11.68C60.571 12.8533 62.2777 14.5067 63.4777 16.64C64.7043 18.7467 65.3177 21.1867 65.3177 23.96C65.3177 26.7067 64.7043 29.1467 63.4777 31.28C62.2777 33.4133 60.5577 35.0667 58.3177 36.24C56.1043 37.4133 53.531 38 50.5977 38H40.0777V9.92H50.5977ZM50.1577 32.08C52.7443 32.08 54.7577 31.3733 56.1977 29.96C57.6377 28.5467 58.3577 26.5467 58.3577 23.96C58.3577 21.3733 57.6377 19.36 56.1977 17.92C54.7577 16.48 52.7443 15.76 50.1577 15.76H46.9177V32.08H50.1577Z" fill="#F60512"/>
</svg>
